# xmcd CD database file
#
# Track frame offsets:
#	150
#	20054
#	37762
#	65444
#	89975
#	110083
#	132365
#	158771
#	192530
#	214584
#	239941
#
# Disc length: 3481 seconds
#
# Revision: 0
# Processed by: cddbd v1.4PL0 Copyright (c) Steve Scherf et al.
# Submitted via: CDex 1.50beta10
#
DISCID=a70d970b
DTITLE=Grazyna Auguscik - Don't Let Me Go
DYEAR=1900
DGENRE=Jazz
TTITLE0=Leaving (Spanish Go 'Round)
TTITLE1=Wail
TTITLE2=Rosemary's Baby
TTITLE3=So Reminding Me (Country)
TTITLE4=Don't Let Me Go (Little Waltz)
TTITLE5=Glide
TTITLE6=Dreambird
TTITLE7=Times Like These
TTITLE8=Loving Hearts (2 Serduszka 4 Oczy)
TTITLE9=Hand In Hand
TTITLE10=Lullaby For My Mother
EXTD=
EXTT0=
EXTT1=
EXTT2=
EXTT3=
EXTT4=
EXTT5=
EXTT6=
EXTT7=
EXTT8=
EXTT9=
EXTT10=
PLAYORDER=
